<svg xmlns="http://www.w3.org/2000/svg" width="50" height="32" viewBox="0 0 50 32">
  <path fill="#006FCF" d="M4.679 5h40.642L39.87 27H4.176z"/>
  <path fill="#fff" d="M13.5 18.31l-2.03-5.78h-1.77l2.87 8.03-1.07 3.04h1.02l2.14-5.98 1.92 5.98h1.04l2.14-5.98 1.92 5.98h1.04l-2.73-7.97z"/>
  <path fill="#fff" d="M24.99 13.03c-.45-1.29-2.04-1.86-3.38-2.05l.13 1.03c1.03.13 1.9.32 2.24.84.34.51.39 1.19-.14 2.69-.75 2.14-1.45 4.06-1.45 4.06h1.27s.47-1.46 1.03-3.53c.26-.97.48-2.32.33-3.17zm-5.45 6.89l-2.2-6.35h-1.26l2.6 7.32-.42 1.21h1.28z"/>
</svg>